<svg width="24" height="30" viewBox="0 0 24 30" fill="none" xmlns="http://www.w3.org/2000/svg">
<path d="M12 29.9C10.9 29.9 9.89999 29.5 9.19999 28.7C8.99999 28.5 8.99999 28.1 9.19999 27.9C9.39999 27.7 9.79999 27.7 9.99999 27.9C11 29 12.7 29.1 13.8 28.1C13.9 28 13.9 28 14 27.9C14.2 27.7 14.5 27.7 14.8 27.9C15 28.1 15 28.4 14.8 28.7C14.1 29.5 13.1 29.9 12 29.9ZM21.6 26.2H2.39999C1.29999 26.2 0.299988 25.3 0.299988 24.1V23.2C0.299988 22.7 0.499988 22.1 0.899988 21.7C1.79999 20.8 2.29999 19.5 2.29999 18.3V12.4C2.29999 7.09999 6.59999 2.69999 12 2.69999C17.3 2.69999 21.7 6.99999 21.7 12.4V18.3C21.7 19.6 22.2 20.8 23.1 21.7C23.5 22.1 23.7 22.6 23.7 23.2V24.1C23.7 25.3 22.8 26.2 21.6 26.2ZM12 3.89999C7.29999 3.89999 3.39999 7.79999 3.39999 12.5V18.4C3.39999 20 2.79999 21.5 1.69999 22.6C1.49999 22.8 1.39999 23 1.39999 23.3V24.2C1.39999 24.7 1.79999 25.2 2.39999 25.2H21.7C22.2 25.2 22.7 24.8 22.7 24.2V23.3C22.7 23 22.6 22.8 22.4 22.6C21.3 21.5 20.7 20 20.7 18.4V12.5C20.6 7.79999 16.7 3.89999 12 3.89999ZM13.3 1.79999C13.1 1.79999 13 1.69999 12.9 1.59999C12.6 1.09999 11.9 0.999985 11.4 1.39999C11.3 1.49999 11.2 1.49999 11.2 1.59999C11 1.79999 10.7 1.89999 10.5 1.69999C10.3 1.49999 10.2 1.19999 10.4 0.999985C11.1 -1.4782e-05 12.4 -0.200015 13.4 0.499985C13.6 0.599985 13.8 0.799985 13.9 0.999985C14.1 1.19999 14 1.59999 13.8 1.69999C13.5 1.69999 13.4 1.79999 13.3 1.79999Z" fill="black"/>
</svg>
