<svg width="164" height="62" viewBox="0 0 164 62" fill="none" xmlns="http://www.w3.org/2000/svg">
<path d="M22.4087 16.0777L16.4902 30.9432C16.1488 31.6979 15.978 32.1757 15.978 32.377C15.978 32.9556 16.4459 33.3642 17.3817 33.6032V34.2069H9.05402V33.6032C9.90134 33.4397 10.325 33.0121 10.325 32.3203C10.325 32.1317 10.148 31.572 9.79385 30.6414L2.37665 11.6444C2.0099 10.7011 1.67476 10.066 1.37125 9.739C1.08038 9.39943 0.650393 9.17304 0.0812988 9.05985V8.45618H9.073V9.05985C8.27626 9.23593 7.87789 9.60695 7.87789 10.1729C7.87789 10.4622 7.97907 10.8772 8.18141 11.418L13.3033 25.0385L18.8425 11.3425C19.0827 10.7514 19.2029 10.3615 19.2029 10.1729C19.2029 9.59437 18.7792 9.22336 17.9319 9.05985V8.45618H27.3409V9.05985C26.481 9.28624 26.051 9.69499 26.051 10.2861C26.051 10.4873 26.1585 10.8646 26.3735 11.418L31.6471 25.0952L36.75 11.6444C37.0155 10.9778 37.1483 10.481 37.1483 10.154C37.1483 9.60066 36.693 9.23593 35.7824 9.05985V8.45618H44.6793V9.05985C44.0471 9.23593 43.6107 9.46232 43.3705 9.739C43.1302 10.0157 42.814 10.6508 42.422 11.6444L35.0048 30.6414C34.6507 31.547 34.4736 32.1506 34.4736 32.4524C34.4736 33.0687 34.9225 33.4523 35.8205 33.6032V34.2069H27.3788V33.6032C28.2641 33.4649 28.7068 33.0435 28.7068 32.3392C28.7068 32.1002 28.5107 31.5343 28.1186 30.6414L22.4087 16.0777ZM53.347 25.529V32.2826C53.347 32.6724 53.4356 32.9744 53.6127 33.1881C53.7897 33.3894 54.1059 33.5592 54.561 33.6976V34.2069H47.049V33.6786C47.4917 33.5655 47.8016 33.4019 47.9786 33.1881C48.1683 32.9744 48.2632 32.6724 48.2632 32.2826V15.0023C48.2632 14.6125 48.1746 14.3169 47.9975 14.1157C47.8205 13.9145 47.5043 13.7447 47.049 13.6063V13.0781H60.9729C62.7813 13.0781 64.1598 13.1724 65.1083 13.3611C66.0569 13.5371 66.9042 13.8641 67.6503 14.3421C69.1805 15.3357 69.9456 16.958 69.9456 19.2093C69.9456 20.9196 69.4714 22.259 68.5228 23.2275C67.5871 24.1833 66.0694 24.875 63.9702 25.3025L67.9917 30.8867C68.7252 31.9179 69.3069 32.6222 69.737 32.9995C70.1796 33.3642 70.6791 33.5969 71.2356 33.6976V34.2069H62.3197V33.6976C62.9774 33.5215 63.3062 33.2385 63.3062 32.8485C63.3062 32.572 63.1038 32.1506 62.6992 31.5847L58.4499 25.529H53.347ZM53.347 21.6994H61.0108C62.1743 21.6994 63.0342 21.5737 63.5907 21.322C64.3748 20.9825 64.7668 20.3097 64.7668 19.3035C64.7668 18.4106 64.4886 17.788 63.9322 17.4359C63.3883 17.0837 62.4146 16.9076 61.0108 16.9076H53.347V21.6994ZM81.6485 15.0023V32.2826C81.6485 32.6724 81.737 32.9744 81.914 33.1881C82.0911 33.3894 82.4073 33.5592 82.8626 33.6976V34.2069H75.3505V33.6786C75.7932 33.5655 76.1029 33.4019 76.28 33.1881C76.4698 32.9744 76.5645 32.6724 76.5645 32.2826V15.0023C76.5645 14.6125 76.4761 14.3169 76.299 14.1157C76.122 13.9145 75.8058 13.7447 75.3505 13.6063V13.0781H82.8626V13.6063C82.4073 13.7321 82.0911 13.9019 81.914 14.1157C81.737 14.3169 81.6485 14.6125 81.6485 15.0023ZM99.896 16.9076V32.2826C99.896 32.6724 99.9844 32.9744 100.161 33.1881C100.339 33.3894 100.655 33.5592 101.11 33.6976V34.2069H93.598V33.6786C94.0405 33.5655 94.3504 33.4019 94.5274 33.1881C94.7172 32.9744 94.812 32.6724 94.812 32.2826V16.9076H88.552C88.1473 16.9076 87.8374 17.002 87.6224 17.1906C87.4202 17.3667 87.2557 17.6811 87.1292 18.1339H86.617V11.8707H87.1482C87.262 12.3109 87.4202 12.6253 87.6224 12.814C87.8374 12.9901 88.1473 13.0781 88.552 13.0781H106.156C106.561 13.0781 106.864 12.9901 107.067 12.814C107.282 12.6379 107.452 12.3235 107.579 11.8707H108.091V18.1339H107.579C107.452 17.6811 107.282 17.3667 107.067 17.1906C106.864 17.002 106.561 16.9076 106.156 16.9076H99.896ZM118.409 25.2271V30.3772H131.897C132.289 30.3772 132.586 30.2893 132.788 30.1132C133.003 29.9371 133.174 29.6164 133.3 29.1511H133.831V35.4142H133.3C133.186 34.9741 133.022 34.6597 132.807 34.4709C132.592 34.2948 132.289 34.2069 131.897 34.2069H112.111V33.6786C112.554 33.5655 112.863 33.4019 113.041 33.1881C113.23 32.9744 113.325 32.6724 113.325 32.2826V15.0023C113.325 14.6125 113.236 14.3169 113.059 14.1157C112.882 13.9145 112.566 13.7447 112.111 13.6063V13.0781H131.308C131.713 13.0781 132.017 12.9901 132.219 12.814C132.434 12.6379 132.605 12.3235 132.731 11.8707H133.243V18.1339H132.731C132.605 17.6686 132.434 17.3479 132.219 17.1718C132.017 16.9958 131.713 16.9076 131.308 16.9076H118.409V21.5485H126.414C126.806 21.5485 127.103 21.4604 127.306 21.2843C127.521 21.1082 127.698 20.7939 127.837 20.3412H128.349V26.4534H127.837C127.71 26.0006 127.54 25.6861 127.325 25.5101C127.122 25.3215 126.819 25.2271 126.414 25.2271H118.409ZM144.889 25.529V32.2826C144.889 32.6724 144.978 32.9744 145.155 33.1881C145.332 33.3894 145.648 33.5592 146.103 33.6976V34.2069H138.591V33.6786C139.034 33.5655 139.344 33.4019 139.521 33.1881C139.711 32.9744 139.805 32.6724 139.805 32.2826V15.0023C139.805 14.6125 139.717 14.3169 139.54 14.1157C139.363 13.9145 139.047 13.7447 138.591 13.6063V13.0781H152.515C154.324 13.0781 155.702 13.1724 156.651 13.3611C157.6 13.5371 158.446 13.8641 159.192 14.3421C160.723 15.3357 161.488 16.958 161.488 19.2093C161.488 20.9196 161.013 22.259 160.066 23.2275C159.129 24.1833 157.612 24.875 155.513 25.3025L159.535 30.8867C160.267 31.9179 160.849 32.6222 161.279 32.9995C161.721 33.3642 162.222 33.5969 162.778 33.6976V34.2069H153.862V33.6976C154.519 33.5215 154.848 33.2385 154.848 32.8485C154.848 32.572 154.647 32.1506 154.241 31.5847L149.992 25.529H144.889ZM144.889 21.6994H152.553C153.716 21.6994 154.576 21.5737 155.134 21.322C155.917 20.9825 156.31 20.3097 156.31 19.3035C156.31 18.4106 156.03 17.788 155.474 17.4359C154.931 17.0837 153.957 16.9076 152.553 16.9076H144.889V21.6994Z" fill="#292D36"/>
<path d="M121.215 53.1428C120.451 53.1428 119.787 52.9828 119.223 52.6625C118.673 52.3292 118.244 51.8824 117.936 51.3221C117.641 50.7485 117.493 50.1082 117.493 49.4013V40.8375H113.208V39.1368H123.71V40.8375H119.425V49.6413C119.425 50.1615 119.586 50.595 119.907 50.9418C120.243 51.2753 120.685 51.4421 121.235 51.4421H122.161V53.1428H121.215ZM129.476 53.3829C128.429 53.3829 127.504 53.1495 126.699 52.6825C125.894 52.2024 125.257 51.5621 124.788 50.7618C124.318 49.9481 124.083 49.041 124.083 48.0406C124.083 47.0402 124.318 46.1399 124.788 45.3395C125.257 44.5257 125.894 43.8856 126.699 43.4187C127.504 42.9385 128.429 42.6984 129.476 42.6984C130.522 42.6984 131.447 42.9385 132.252 43.4187C133.07 43.8856 133.707 44.5192 134.163 45.3195C134.633 46.1199 134.868 47.0268 134.868 48.0406C134.868 49.041 134.633 49.9481 134.163 50.7618C133.707 51.5621 133.07 52.2024 132.252 52.6825C131.447 53.1495 130.522 53.3829 129.476 53.3829ZM129.476 51.8022C130.186 51.8022 130.803 51.6356 131.327 51.3021C131.85 50.9685 132.259 50.5217 132.554 49.9614C132.849 49.3878 132.996 48.7475 132.996 48.0406C132.996 47.3336 132.849 46.7 132.554 46.1399C132.259 45.5663 131.85 45.1127 131.327 44.7792C130.803 44.4457 130.186 44.2791 129.476 44.2791C128.778 44.2791 128.161 44.4457 127.625 44.7792C127.101 45.1127 126.692 45.5663 126.397 46.1399C126.102 46.7 125.955 47.3336 125.955 48.0406C125.955 48.7475 126.102 49.3878 126.397 49.9614C126.692 50.5217 127.101 50.9685 127.625 51.3021C128.161 51.6356 128.778 51.8022 129.476 51.8022ZM142.07 53.3829C141.024 53.3829 140.098 53.1495 139.294 52.6825C138.489 52.2024 137.852 51.5621 137.382 50.7618C136.913 49.9481 136.678 49.041 136.678 48.0406C136.678 47.0402 136.913 46.1399 137.382 45.3395C137.852 44.5257 138.489 43.8856 139.294 43.4187C140.098 42.9385 141.024 42.6984 142.07 42.6984C143.116 42.6984 144.042 42.9385 144.847 43.4187C145.665 43.8856 146.302 44.5192 146.758 45.3195C147.227 46.1199 147.462 47.0268 147.462 48.0406C147.462 49.041 147.227 49.9481 146.758 50.7618C146.302 51.5621 145.665 52.2024 144.847 52.6825C144.042 53.1495 143.116 53.3829 142.07 53.3829ZM142.07 51.8022C142.781 51.8022 143.398 51.6356 143.921 51.3021C144.444 50.9685 144.853 50.5217 145.148 49.9614C145.443 49.3878 145.591 48.7475 145.591 48.0406C145.591 47.3336 145.443 46.7 145.148 46.1399C144.853 45.5663 144.444 45.1127 143.921 44.7792C143.398 44.4457 142.781 44.2791 142.07 44.2791C141.373 44.2791 140.756 44.4457 140.219 44.7792C139.696 45.1127 139.287 45.5663 138.992 46.1399C138.697 46.7 138.549 47.3336 138.549 48.0406C138.549 48.7475 138.697 49.3878 138.992 49.9614C139.287 50.5217 139.696 50.9685 140.219 51.3021C140.756 51.6356 141.373 51.8022 142.07 51.8022ZM149.836 53.1428V38.5366H151.687V53.1428H149.836ZM154.489 53.1428V51.5621H159.398C159.72 51.5621 159.995 51.4954 160.222 51.3621C160.465 51.2153 160.646 51.0286 160.766 50.8018C160.887 50.575 160.947 50.3349 160.947 50.0815C160.947 49.8414 160.893 49.6213 160.786 49.4213C160.679 49.2078 160.511 49.041 160.284 48.921C160.069 48.7877 159.808 48.721 159.499 48.721H157.426C156.769 48.721 156.193 48.6142 155.696 48.4007C155.213 48.174 154.831 47.8472 154.55 47.4203C154.281 46.9935 154.148 46.4732 154.148 45.8596C154.148 45.3395 154.275 44.8592 154.53 44.4191C154.783 43.9789 155.14 43.6254 155.596 43.3586C156.052 43.0785 156.575 42.9385 157.165 42.9385H161.893V44.5192H157.346C156.93 44.5192 156.602 44.6459 156.36 44.8993C156.119 45.1528 155.998 45.4528 155.998 45.7996C155.998 46.1331 156.119 46.4267 156.36 46.68C156.615 46.9202 156.97 47.0402 157.426 47.0402H159.398C160.136 47.0402 160.754 47.1603 161.25 47.4003C161.76 47.6271 162.142 47.9606 162.397 48.4007C162.664 48.841 162.799 49.3813 162.799 50.0214C162.799 50.5684 162.664 51.082 162.397 51.5621C162.128 52.029 161.752 52.4092 161.27 52.7026C160.8 52.9961 160.25 53.1428 159.619 53.1428H154.489Z" fill="#6C6F75"/>
<path d="M0.153564 46.1946H95.8202" stroke="#6C6F75" stroke-width="0.7"/>
<path fill-rule="evenodd" clip-rule="evenodd" d="M102.952 47.6627H106.765L107.254 49.6072L105.015 53.4961V49.7141C105.01 49.7086 105.006 49.7026 105.004 49.6965C105.342 49.6456 105.602 49.3552 105.602 49.0043C105.602 48.6178 105.287 48.3043 104.898 48.3043C104.509 48.3043 104.194 48.6178 104.194 49.0043C104.194 49.3344 104.424 49.6111 104.733 49.685C104.736 49.695 104.739 49.7047 104.741 49.7141V53.4961L102.542 49.6072L102.952 47.6627Z" fill="#6C6F75"/>
<path d="M107.889 39.8266C108.051 39.8266 108.182 39.696 108.182 39.535C108.182 39.3739 108.051 39.2433 107.889 39.2433C107.727 39.2433 107.596 39.3739 107.596 39.535C107.596 39.696 107.727 39.8266 107.889 39.8266Z" fill="#6C6F75"/>
<path d="M101.847 39.8266C102.009 39.8266 102.14 39.696 102.14 39.535C102.14 39.3739 102.009 39.2433 101.847 39.2433C101.685 39.2433 101.554 39.3739 101.554 39.535C101.554 39.696 101.685 39.8266 101.847 39.8266Z" fill="#6C6F75"/>
<path fill-rule="evenodd" clip-rule="evenodd" d="M99.8717 47.2813V47.5855C100.74 47.2666 100.429 46.5063 100.087 46.3604V45.8938H99.9695C100.267 45.2793 101.276 44.6783 101.739 44.4742C101.88 44.6687 102.169 44.7109 102.296 44.7075C102.335 45.0265 102.834 45.6442 103.078 45.9132L102.844 47.3618H106.911L106.705 45.9132C107.026 45.6565 107.367 45.0025 107.497 44.7075C107.943 44.6609 108.048 44.5391 108.045 44.4839C108.952 44.7717 109.603 45.5242 109.814 45.8646H109.717V46.3409C109.013 46.932 109.547 47.4299 109.902 47.6049V47.2967C109.785 47.2271 109.707 47.0997 109.707 46.9542C109.707 46.734 109.886 46.5556 110.108 46.5556C110.329 46.5556 110.508 46.734 110.508 46.9542C110.508 47.1076 110.421 47.2408 110.294 47.3074V47.6049C111.154 47.2549 110.802 46.4771 110.518 46.3409V45.8646H110.352C110.305 44.5501 109.133 43.852 108.553 43.6673C108.647 43.4495 108.618 43.2136 108.592 43.1228C108.326 42.3529 107.126 42.802 106.559 43.1228C106.434 43.0295 106.252 43.0256 106.178 43.0353C107.085 42.7553 107.638 42.0696 107.8 41.7616C107.911 41.7973 108.15 41.7616 108.221 41.3339C108.291 40.9061 108.1 40.7084 107.996 40.663V39.788C108.152 39.788 108.214 39.3311 107.869 39.3311C107.576 39.3311 107.654 39.6713 107.8 39.788V40.488C107.69 40.0051 106.983 39.0218 105.044 38.9519C103.104 38.8818 102.15 39.9922 101.915 40.5561V39.788C102.14 39.7005 102.169 39.2416 101.827 39.3699C101.543 39.4763 101.576 39.6811 101.739 39.788V40.6338C101.622 40.6306 101.395 40.7467 101.426 41.2367C101.457 41.7266 101.817 41.7973 101.993 41.7714C102.275 42.4324 103.16 42.8895 103.567 43.0353C103.473 43.0276 103.294 43.0905 103.215 43.1228C102.918 42.9361 102.564 42.8246 102.423 42.7922C101.039 42.5355 101.051 43.2687 101.231 43.6673C99.7837 44.1339 99.4482 45.346 99.4611 45.8938H99.3437V46.3604C99.2819 46.3215 99.0016 46.4382 98.9331 46.8173C98.8471 47.2943 99.2688 47.5206 99.5197 47.5855V47.301C99.3817 47.241 99.2851 47.104 99.2851 46.9444C99.2851 46.941 99.2852 46.9377 99.2852 46.9343C99.2852 46.9308 99.2851 46.9274 99.2851 46.9241C99.2851 46.7092 99.4603 46.5351 99.6762 46.5351C99.8923 46.5351 100.067 46.7092 100.067 46.9241C100.067 46.9274 100.067 46.9308 100.067 46.9343C100.067 46.9377 100.067 46.941 100.067 46.9444C100.067 47.0884 99.9887 47.2141 99.8717 47.2813Z" fill="#6C6F75"/>
<path d="M104.887 44.7078L103.206 43.8036L104.887 45.8939L106.569 43.8036L104.887 44.7078Z" fill="white"/>
<path d="M104.594 42.6862C102.975 42.6085 102.544 41.5585 102.531 41.0431C102.484 40.5998 102.916 40.6445 103.137 40.7222C104.858 41.4126 106.168 40.8972 106.725 40.7222C107.171 40.5823 107.27 40.8778 107.263 41.0431C107.204 41.6654 106.618 42.7835 104.594 42.6862Z" fill="white"/>
<path d="M103.773 42.2191C104.048 42.2191 104.272 41.9971 104.272 41.7233C104.272 41.4494 104.048 41.2274 103.773 41.2274C103.498 41.2274 103.274 41.4494 103.274 41.7233C103.274 41.9971 103.498 42.2191 103.773 42.2191Z" fill="#6C6F75"/>
<path d="M105.904 42.2191C106.179 42.2191 106.403 41.9971 106.403 41.7233C106.403 41.4494 106.179 41.2274 105.904 41.2274C105.629 41.2274 105.405 41.4494 105.405 41.7233C105.405 41.9971 105.629 42.2191 105.904 42.2191Z" fill="#6C6F75"/>
</svg>
