<svg width="39" height="25" viewBox="0 0 39 25" fill="none" xmlns="http://www.w3.org/2000/svg">
<path d="M19.1667 0C14.0563 0 10.8604 2.77805 9.58333 8.33293C11.5 5.5561 13.7354 4.51342 16.2917 5.20975C17.7511 5.60471 18.7917 6.75433 19.9459 8.02669C21.8243 10.0999 24 12.5 28.7511 12.5C33.8626 12.5 37.0574 9.72195 38.3345 4.16707C36.4189 6.94512 34.1824 7.98658 31.6261 7.29146C30.1689 6.89651 29.1261 5.74567 27.9718 4.4721C26.0935 2.40011 23.9178 0 19.1667 0ZM9.58333 12.5C4.47185 12.5 1.27703 15.278 0 20.8329C1.91554 18.0549 4.15203 17.0134 6.70833 17.7085C8.16554 18.1035 9.20833 19.2543 10.3626 20.5279C12.241 22.5999 14.4167 25 19.1667 25C24.2793 25 27.4741 22.222 28.7511 16.6671C26.8345 19.4451 24.598 20.4866 22.0428 19.7915C20.5845 19.3953 19.5428 18.2457 18.3885 16.9721C16.509 14.9001 14.3356 12.5 9.58333 12.5Z" fill="white"/>
</svg>
