<svg width="30" height="30" viewBox="0 0 30 30" fill="none" xmlns="http://www.w3.org/2000/svg">
<path d="M20.55 15.7C20.6959 15.7 20.8358 15.642 20.9389 15.5389C21.0421 15.4357 21.1 15.2958 21.1 15.15C21.1 15.0041 21.0421 14.8642 20.9389 14.761C20.8358 14.6579 20.6959 14.6 20.55 14.6H9.45C9.30413 14.6 9.16424 14.6579 9.06109 14.761C8.95795 14.8642 8.9 15.0041 8.9 15.15C8.9 15.2958 8.95795 15.4357 9.06109 15.5389C9.16424 15.642 9.30413 15.7 9.45 15.7H20.55Z" fill="#6C6F75" stroke="#6C6F75" stroke-width="0.2"/>
<path d="M14.9996 25C20.5223 25 24.9996 20.5227 24.9996 15C24.9996 9.47725 20.5223 4.99998 14.9996 4.99998C9.47688 4.99998 4.99961 9.47725 4.99961 15C4.99961 20.5227 9.47688 25 14.9996 25ZM23.8996 15C23.8996 19.9154 19.9151 23.9 14.9996 23.9C10.0841 23.9 6.09961 19.9154 6.09961 15C6.09961 10.0845 10.0841 6.09998 14.9996 6.09998C19.9151 6.09998 23.8996 10.0845 23.8996 15Z" fill="#6C6F75" stroke="#6C6F75" stroke-width="0.2"/>
</svg>
