<svg width="24" height="24" viewBox="0 0 24 24" fill="none" xmlns="http://www.w3.org/2000/svg">
<path d="M23.0403 0.960041C22.7371 0.655449 22.3766 0.413756 21.9797 0.248838C21.5828 0.0839193 21.1572 -0.000976562 20.7273 -0.000976562C20.2975 -0.000976562 19.8719 0.0839193 19.475 0.248838C19.0781 0.413756 18.7176 0.655449 18.4143 0.960041L6.67234 12.732C6.5783 12.8279 6.51914 12.9526 6.50434 13.086L6.00034 17.328C5.98965 17.4174 5.9992 17.508 6.02828 17.5932C6.05737 17.6783 6.10523 17.7559 6.16834 17.82C6.22462 17.8775 6.29186 17.923 6.36607 17.9539C6.44028 17.9848 6.51995 18.0005 6.60034 18H6.66634L10.9443 17.556C11.0807 17.5409 11.2078 17.4795 11.3043 17.382L23.0403 5.60404C23.6537 4.98689 23.9979 4.15214 23.9979 3.28204C23.9979 2.41195 23.6537 1.57719 23.0403 0.960041ZM10.6083 16.374L7.28434 16.728L7.66834 13.434L16.9443 4.13404L19.8783 7.07404L10.6083 16.374ZM20.7243 6.22804L17.7903 3.28204L19.2603 1.80004C19.6551 1.41948 20.182 1.20684 20.7303 1.20684C21.2786 1.20684 21.8056 1.41948 22.2003 1.80004C22.5894 2.19031 22.8079 2.71894 22.8079 3.27004C22.8079 3.82115 22.5894 4.34977 22.2003 4.74004L20.7243 6.22804Z" fill="white"/>
<path d="M20.4 19.8C20.4 20.5957 20.0839 21.3587 19.5213 21.9213C18.9587 22.484 18.1957 22.8 17.4 22.8H4.2C3.40435 22.8 2.64129 22.484 2.07868 21.9213C1.51607 21.3587 1.2 20.5957 1.2 19.8V6.60002C1.2 5.80438 1.51607 5.04131 2.07868 4.4787C2.64129 3.91609 3.40435 3.60002 4.2 3.60002H13.2V2.40002H4.2C3.08609 2.40002 2.0178 2.84252 1.23015 3.63018C0.442499 4.41783 0 5.48612 0 6.60002V19.8C0 20.9139 0.442499 21.9822 1.23015 22.7699C2.0178 23.5575 3.08609 24 4.2 24H17.4C18.5139 24 19.5822 23.5575 20.3699 22.7699C21.1575 21.9822 21.6 20.9139 21.6 19.8V10.8H20.4V19.8Z" fill="white"/>
</svg>
